<?xml version="1.0" encoding="UTF-8"?>
<svg version="1.1" xmlns="http://www.w3.org/2000/svg" width="32" height="32">
<path d="M0 0 C4.8846525 2.26787438 7.73212562 5.1153475 10 10 C10.75381535 15.5997712 10.77303575 20.33499991 8.375 25.5 C3.80134327 30.3143755 0.6912538 32.25156236 -6 32.5 C-12.6912538 32.25156236 -15.80134327 30.3143755 -20.375 25.5 C-22.77303575 20.33499991 -22.75381535 15.5997712 -22 10 C-17.52212837 0.3553534 -9.85292056 -1.32635469 0 0 Z " fill="#F9F9FA" transform="translate(22,0)"/>
<path d="M0 0 C2.9375 1.1875 2.9375 1.1875 5 3 C5.8125 5.6875 5.8125 5.6875 6 8 C5.34 8 4.68 8 4 8 C3.67 6.68 3.34 5.36 3 4 C1.41986783 3.74971189 -0.16442306 3.52559054 -1.75 3.3125 C-3.07257812 3.12107422 -3.07257812 3.12107422 -4.421875 2.92578125 C-7.04268756 2.82138328 -7.04268756 2.82138328 -9.30078125 4.140625 C-11.58047987 6.63519176 -11.50548045 8.09739369 -11.4375 11.4375 C-11.43621094 12.38496094 -11.43492188 13.33242188 -11.43359375 14.30859375 C-10.93630931 17.39534132 -10.21287785 18.80756444 -8 21 C-3.62144505 21.46913089 -1.70415293 21.46943529 2 19 C2.72965366 16.43717258 2.72965366 16.43717258 3 14 C2.34 14 1.68 14 1 14 C0.34 15.32 -0.32 16.64 -1 18 C-3.875 18.125 -3.875 18.125 -7 18 C-7.66 17.34 -8.32 16.68 -9 16 C-8.63318342 13.06546739 -8.13562754 12.13562754 -6 10 C-3.875 9.375 -3.875 9.375 -2 9 C-3.65 9 -5.3 9 -7 9 C-7 8.01 -7 7.02 -7 6 C-1.52702703 5.63513514 -1.52702703 5.63513514 0.625 7.125 C1.305625 8.053125 1.305625 8.053125 2 9 C3.11375 10.423125 3.11375 10.423125 4.25 11.875 C6 15 6 15 5.9375 17.6875 C4.62414163 20.92711732 3.10237002 22.44881499 0 24 C-7.01971231 24.57538625 -7.01971231 24.57538625 -10.875 22.3125 C-14.09217178 18.81146012 -14.86223635 16.26283344 -15.375 11.5625 C-14.92715888 7.30800938 -13.6792268 5.2916215 -11 2 C-7.28494294 -0.47670471 -4.30466152 -0.5370338 0 0 Z " fill="#3B4964" transform="translate(20,4)"/>
<path d="M0 0 C5.47297297 -0.36486486 5.47297297 -0.36486486 7.625 1.125 C8.07875 1.74375 8.5325 2.3625 9 3 C9.7425 3.969375 10.485 4.93875 11.25 5.9375 C13 9 13 9 12.75 11.375 C12.37875 12.179375 12.37875 12.179375 12 13 C11.34 12.67 10.68 12.34 10 12 C10 10.68 10 9.36 10 8 C9.34 8 8.68 8 8 8 C7.34 9.32 6.68 10.64 6 12 C3.125 12.125 3.125 12.125 0 12 C-0.66 11.34 -1.32 10.68 -2 10 C-1.63318342 7.06546739 -1.13562754 6.13562754 1 4 C3.125 3.375 3.125 3.375 5 3 C3.35 3 1.7 3 0 3 C0 2.01 0 1.02 0 0 Z " fill="#3E4C66" transform="translate(13,10)"/>
<path d="M0 0 C3 1 3 1 4.25 3.0625 C5.94635518 5.34271918 5.94635518 5.34271918 9.3125 5.5625 C14.06785325 4.83710713 15.60743331 3.30982116 19 0 C18.51789077 5.54425612 18.51789077 5.54425612 16.4375 7.375 C12.90919031 8.27969479 9.58682637 8.58357096 6 8 C2.96034366 6.1891409 1.39577769 5.09599977 0.1875 1.75 C0.125625 1.1725 0.06375 0.595 0 0 Z " fill="#3E4C66" transform="translate(6,20)"/>
<path d="M0 0 C3.67230705 3.07999946 4.56802365 5.2482602 5 10 C4.01 9.67 3.02 9.34 2 9 C2 7.68 2 6.36 2 5 C1.443125 5.144375 0.88625 5.28875 0.3125 5.4375 C-2.11384195 6.02769128 -4.54906345 6.523429 -7 7 C-6.67 5.68 -6.34 4.36 -6 3 C-5.195625 2.87625 -4.39125 2.7525 -3.5625 2.625 C-2.716875 2.41875 -1.87125 2.2125 -1 2 C-0.67 1.34 -0.34 0.68 0 0 Z " fill="#979FAD" transform="translate(21,13)"/>
<path d="M0 0 C0.66 0.33 1.32 0.66 2 1 C1.67 4.3 1.34 7.6 1 11 C0.01 10.67 -0.98 10.34 -2 10 C-2.25 3.375 -2.25 3.375 0 0 Z " fill="#59657B" transform="translate(7,9)"/>
<path d="M0 0 C5.75 -0.125 5.75 -0.125 8 1 C7.67 2.32 7.34 3.64 7 5 C5.02 5 3.04 5 1 5 C2.32 4.34 3.64 3.68 5 3 C3.35 3 1.7 3 0 3 C0 2.01 0 1.02 0 0 Z " fill="#4B5870" transform="translate(13,10)"/>
<path d="M0 0 C2.375 -0.1875 2.375 -0.1875 5 0 C7 3 7 3 7 6 C6.34 6 5.68 6 5 6 C4.87625 5.071875 4.87625 5.071875 4.75 4.125 C4.18741541 1.81562433 4.18741541 1.81562433 1.9375 0.75 C1.298125 0.5025 0.65875 0.255 0 0 Z " fill="#4F5B73" transform="translate(19,6)"/>
</svg>
