<?xml version="1.0" standalone="no"?>
<!DOCTYPE svg PUBLIC "-//W3C//DTD SVG 20010904//EN"
 "http://www.w3.org/TR/2001/REC-SVG-20010904/DTD/svg10.dtd">
<svg version="1.0" xmlns="http://www.w3.org/2000/svg"
 width="32.000000pt" height="32.000000pt" viewBox="0 0 32.000000 32.000000"
 preserveAspectRatio="xMidYMid meet">

<g transform="translate(0.000000,32.000000) scale(0.100000,-0.100000)"
fill="#000000" stroke="none">
<path d="M114 270 c-37 -15 -54 -50 -54 -112 0 -75 26 -108 90 -115 60 -7 100
22 100 72 0 21 -6 38 -16 43 -8 5 -21 20 -28 33 -9 18 -20 24 -44 24 -18 0
-32 -4 -32 -10 0 -5 14 -8 30 -7 40 5 38 -11 -2 -23 -28 -8 -33 -15 -33 -40 0
-26 4 -30 32 -33 23 -2 35 3 47 20 14 19 18 21 26 8 14 -21 12 -28 -10 -50
-28 -28 -82 -26 -116 4 -24 20 -28 31 -28 76 0 45 4 56 28 76 40 35 90 32 127
-7 28 -30 41 -20 16 12 -28 36 -85 49 -133 29z m76 -125 c0 -19 -24 -29 -46
-21 -13 5 -14 9 -4 21 16 20 50 19 50 0z"/>
</g>
</svg>
